<svg id="_x33_0" enable-background="new 0 0 64 64" height="512" viewBox="0 0 64 64" width="512" xmlns="http://www.w3.org/2000/svg"><g><circle cx="29" cy="41" r="1"/><circle cx="35" cy="41" r="1"/><path d="m34 43.764c-.381.762-1.147 1.236-2 1.236s-1.619-.474-2-1.236l-.105-.211-1.789.895.105.211c.722 1.444 2.174 2.341 3.789 2.341s3.067-.897 3.789-2.342l.105-.211-1.789-.895z"/><circle cx="14" cy="16" r="1"/><circle cx="20" cy="16" r="1"/><path d="m19 18.764c-.381.762-1.147 1.236-2 1.236s-1.619-.474-2-1.236l-.105-.211-1.789.895.105.211c.722 1.444 2.174 2.341 3.789 2.341s3.067-.897 3.789-2.342l.105-.211-1.789-.895z"/><circle cx="50" cy="16" r="1"/><circle cx="44" cy="16" r="1"/><path d="m44.895 18.553-1.789.895.105.211c.722 1.444 2.174 2.341 3.789 2.341s3.067-.897 3.789-2.342l.105-.211-1.789-.895-.105.212c-.381.762-1.147 1.236-2 1.236s-1.619-.474-2-1.236z"/><path d="m59 29.2v-16.2c0-6.617-5.383-12-12-12s-12 5.383-12 12v14.031c-.201-.013-.4-.031-.604-.031h-4.792c-1.392 0-2.713.304-3.908.839-.029-.006-.057-.012-.086-.018l-3.763-.684-.142-.709 3.402-1.275c2.329-.873 3.893-3.131 3.893-5.618v-.121l.293-.293c1.101-1.1 1.707-2.564 1.707-4.121 0-7.72-6.281-14-14-14s-14 6.28-14 14c0 1.557.606 3.021 1.707 4.121l.293.293v.121c0 2.487 1.564 4.745 3.894 5.618l3.401 1.276-.142.709-3.763.684c-4.282.778-7.39 4.502-7.39 8.855v18.323c0 1.103.897 2 2 2v2c0 2.206 1.794 4 4 4h50c2.206 0 4-1.794 4-4v-2c1.103 0 2-.897 2-2v-18.323c0-3.085-1.566-5.849-4-7.477zm-22-16.2c0-5.514 4.486-10 10-10s10 4.486 10 10v15.196c-.448-.158-.91-.287-1.39-.375l-3.763-.684-.488-2.439c2.189-1.428 3.641-3.895 3.641-6.698v-4c0-1.654-1.346-3-3-3h-1.014c-.035-1.538-.404-3.071-1.092-4.447l-1.789.895c.55 1.1.846 2.324.881 3.553h-3.972c.035-1.229.331-2.453.881-3.553l-1.789-.895c-.688 1.376-1.057 2.909-1.092 4.447h-1.014c-1.654 0-3 1.346-3 3v4c0 2.803 1.452 5.27 3.641 6.699l-.488 2.439-3.764.684c-.029.005-.057.012-.085.018-.42-.188-.855-.344-1.304-.471zm15 0c.551 0 1 .449 1 1v4c0 3.309-2.691 6-6 6s-6-2.691-6-6v-4c0-.551.449-1 1-1zm-7.499 12.595c.787.259 1.626.405 2.499.405s1.712-.146 2.499-.405l.364 1.82c-1.812.745-3.915.745-5.727 0zm-2.501 11.009c0 .617-.099 1.223-.246 1.819-.532-.262-1.122-.423-1.754-.423h-.112c-.308-1.156-1.281-2.057-2.516-2.211l-2.744-.343c-1.498-.187-2.628-1.467-2.628-2.977v-3.469h2.396c4.193 0 7.604 3.411 7.604 7.604zm-2 6.396v-3c1.103 0 2 .897 2 2s-.897 2-2 2h-.069c.041-.328.069-.661.069-1zm9.586 10 1.707 1.707 1.414-1.414-1.707-1.707v-11l-1.586-1.586c-.263-.263-.414-.628-.414-1 0-.551.449-1 1-1h1v-2c0-1.103.897-2 2-2s2 .897 2 2v18c0 2.206-1.794 4-4 4h-2v-4zm1.414 6c1.538 0 2.937-.586 4-1.54v3.54h-12v-2zm-4-2h-6v4h-18v-2h-2v2h-4v-.223c0-3.436 2.46-6.34 5.849-6.905l4.808-.801.222.222c1.1 1.101 2.564 1.707 4.121 1.707s3.021-.606 4.121-1.707l.293-.293h10.586zm-12.114-5.3-.179.179c-1.446 1.446-3.968 1.446-5.414 0l-.179-.179.301-1.137c.812.279 1.68.437 2.585.437s1.773-.158 2.585-.437zm-2.886-2.7c-3.309 0-6-2.691-6-6v-4.737c0-.888.596-1.679 1.451-1.923l3.465-.99c.788 1.115 2.024 1.901 3.464 2.081l2.744.343c.5.063.876.489.876.992v4.234c0 3.309-2.691 6-6 6zm-2-20v3.469c0 .353.037.698.107 1.032l-3.206.917c-1.623.463-2.768 1.916-2.88 3.583h-.021c-.632 0-1.222.161-1.754.423-.147-.597-.246-1.203-.246-1.82 0-4.193 3.411-7.604 7.604-7.604zm-9.775 9.639c.073.337.158.673.268 1.002l.098.295c-.367.605-.591 1.306-.591 2.064 0 .182.03.356.054.532l-3.054 3.054-3.232-3.232c-.496-.496-.768-1.154-.768-1.854s.272-1.358.768-1.854l.232-.232c.529-.531 1.469-.531 2 0l1 1 1-1c.526-.526 1.474-.526 2 0zm3.775 1.361v3c0 .339.028.672.069 1h-.069c-1.103 0-2-.897-2-2s.897-2 2-2zm-7-16c-3.309 0-6-2.691-6-6v-4.764c0-1.233 1.003-2.236 2.236-2.236.345 0 .691.082 1 .236l1.206.603c1.518.76 3.22 1.161 4.919 1.161h1.639c.551 0 1 .449 1 1v4c0 3.309-2.691 6-6 6zm-2.499 1.595c.787.259 1.626.405 2.499.405s1.712-.146 2.499-.405l.364 1.82c-1.812.745-3.915.745-5.727 0zm-7.501-6.06v-.949l-.878-.879c-.724-.723-1.122-1.685-1.122-2.707 0-6.617 5.383-12 12-12s12 5.383 12 12c0 1.022-.398 1.984-1.121 2.707l-.879.879v.949c0 1.658-1.043 3.163-2.595 3.745l-2.279.854c1.754-1.468 2.874-3.672 2.874-6.134v-4c0-1.654-1.346-3-3-3h-1.639c-1.391 0-2.782-.329-4.025-.95l-1.206-.603c-.585-.292-1.24-.447-1.894-.447-2.336 0-4.236 1.9-4.236 4.236v4.764c0 2.462 1.12 4.667 2.875 6.135l-2.28-.855c-1.553-.582-2.595-2.087-2.595-3.745zm-4 17.142c0-3.385 2.417-6.282 5.748-6.887l4.113-.748c1.284.624 2.711.958 4.139.958s2.855-.334 4.139-.958l2.107.383c-1.888 1.674-3.109 4.074-3.225 6.762-1.014-.307-2.158-.167-3.021.459-1.304-.945-3.255-.806-4.414.354l-.232.232c-.874.873-1.354 2.034-1.354 3.268s.48 2.395 1.354 3.268l4.646 4.646 3.908-3.908c.734.904 1.84 1.494 3.092 1.494h.589c.61 1.502 1.661 2.778 2.995 3.664l-.385 1.455-4.679.78c-4.357.727-7.52 4.46-7.52 8.877v.224h-6v-25h-2v19h-4zm2 22.323v-2h2v4c-1.103 0-2-.897-2-2zm54 0c0 1.103-.897 2-2 2v-4h2zm2-4h-4v-20c0-2.206-1.794-4-4-4s-4 1.794-4 4v.171c-1.164.413-2 1.525-2 2.829 0 .912.355 1.77 1 2.414l1 1v9.586h-12.23l-.354-1.336c1.334-.887 2.385-2.163 2.995-3.664h.589c2.206 0 4-1.794 4-4 0-.758-.224-1.459-.591-2.064l.098-.295c.327-.981.493-2.003.493-3.037 0-2.857-1.26-5.418-3.246-7.179l2.107-.383c1.284.624 2.711.958 4.139.958s2.855-.334 4.139-.958l4.113.748c3.331.605 5.748 3.502 5.748 6.887z"/></g></svg>